<?xml version="1.0" encoding="utf-8"?>
<!-- Generator: Adobe Illustrator 27.5.0, SVG Export Plug-In . SVG Version: 6.00 Build 0)  -->
<svg version="1.1" xmlns="http://www.w3.org/2000/svg" xmlns:xlink="http://www.w3.org/1999/xlink" x="0px" y="0px"
	 viewBox="0 0 3710 3710" style="enable-background:new 0 0 3710 3710;" xml:space="preserve">
<g id="Background">
	<g>
		<g>
			<rect style="fill:#FFFFFF;" width="3710" height="3710"/>
		</g>
	</g>
</g>
<g id="Illustration">
	<g>
		<path style="fill:#F4F7FA;" d="M1563.992,463.843C1178.408,470.654,581.836,617.26,410.12,994.01
			c-59.974,131.585-55.913,325.029-47.794,711.918c2.387,113.716,6.344,279.461,34.138,485.112
			c57.737,427.203,97.041,718.027,245.795,887.37c372.733,424.32,1719.137,412.059,2294.089-351.856
			c313.64-416.721,361.89-1009.52,75.104-1499.438C2695.708,687.725,2080.198,454.725,1563.992,463.843z"/>
		<g>
			<g>
				<defs>
					<path id="SVGID_1_" d="M1726.543,2909.751l163.229,175.691c0,0,120.852-50.66,144.455-152.808
						c48.157-208.413,227.33-151.689,305.929-139.158c118.534,18.899,231.232-16.143,170.573-149.496
						s192.206-177.641,379.239-119.53c183.024,56.865,389.72-235.669,4.887-395.119c-229.821-95.223-381.399,93.96-480.657,171.299
						s-233.756-52.19-302.517,98.789c-58.734,128.964-58.126,269.751-177.801,273.064
						C1814.205,2675.795,1734.77,2738.436,1726.543,2909.751z"/>
				</defs>
				
					<linearGradient id="SVGID_00000125569561964877473480000010124018655174487213_" gradientUnits="userSpaceOnUse" x1="1741.3579" y1="2617.9646" x2="3113.8894" y2="2617.9646" gradientTransform="matrix(0.9997 0.0236 -0.0236 0.9997 55.2711 -78.0898)">
					<stop  offset="0" style="stop-color:#FFC444"/>
					<stop  offset="0.9964" style="stop-color:#F36F56"/>
				</linearGradient>
				
					<use xlink:href="#SVGID_1_"  style="overflow:visible;fill:url(#SVGID_00000125569561964877473480000010124018655174487213_);"/>
				<clipPath id="SVGID_00000075880372746449676280000016334436280234293123_">
					<use xlink:href="#SVGID_1_"  style="overflow:visible;"/>
				</clipPath>
				
					<linearGradient id="SVGID_00000102512671879113154130000003840856006615629954_" gradientUnits="userSpaceOnUse" x1="3664.3113" y1="3756.2944" x2="3765.2761" y2="2769.0842" gradientTransform="matrix(0.9778 0.2097 -0.2097 0.9778 -727.059 -733.744)">
					<stop  offset="0" style="stop-color:#FFC444"/>
					<stop  offset="0.9964" style="stop-color:#F36F56"/>
				</linearGradient>
				
					<path style="clip-path:url(#SVGID_00000075880372746449676280000016334436280234293123_);fill:url(#SVGID_00000102512671879113154130000003840856006615629954_);" d="
					M1726.543,2909.751l163.229,175.691c0,0,120.852-50.66,144.455-152.808c48.157-208.413,227.33-151.689,305.929-139.158
					c118.534,18.899,216.909-15.643,184.963-141.121c-36.145-141.973,177.816-186.016,364.849-127.906
					c183.024,56.865,389.72-235.669,4.887-395.119c-229.821-95.223-381.399,93.96-480.657,171.299s-233.756-52.19-302.517,98.789
					c-58.734,128.964-58.126,269.751-177.801,273.064C1814.205,2675.795,1734.77,2738.436,1726.543,2909.751z"/>
				<g style="opacity:0.5;clip-path:url(#SVGID_00000075880372746449676280000016334436280234293123_);">
					<path style="fill:#BEB8F2;" d="M1780.882,3000.94l4.058,3.027c1.875-2.514,190.484-253.488,452.479-445.909
						c241.367-177.274,596.224-339.677,916.066-106.664l2.981-4.092c-142.378-103.728-303.402-139.076-478.601-105.068
						c-139.954,27.167-289.177,98.428-443.527,211.802C1971.759,2746.915,1782.762,2998.422,1780.882,3000.94z"/>
					<path style="fill:#BEB8F2;" d="M2605.27,2359.61l3.88,3.254c108.332-129.064,325.705-244.063,327.888-245.211l-2.352-4.483
						C2932.492,2114.323,2714.237,2229.789,2605.27,2359.61z"/>
					<path style="fill:#BEB8F2;" d="M2722.625,2340.149c193.791,52.584,264.844,203.916,265.538,205.437l4.605-2.1
						c-0.703-1.547-72.651-154.993-268.816-208.223L2722.625,2340.149z"/>
					<path style="fill:#BEB8F2;" d="M2072.99,2693.189c213.398-120.995,477.25,76.995,479.659,79.139l3.603-3.55
						c-2.165-2.328-270.466-202.062-485.758-79.992L2072.99,2693.189z"/>
					<path style="fill:#BEB8F2;" d="M2146.025,2623.202l4.132,2.93c90.582-127.667,54.686-321.236,54.312-323.177l-4.971,0.955
						C2199.866,2305.831,2235.346,2497.319,2146.025,2623.202z"/>
					<path style="fill:#BEB8F2;" d="M1815.489,2965.128c73.032-57.886,217.207-10.782,218.655-10.302l1.6-4.801
						c-6.014-2.008-148.214-48.46-223.4,11.136L1815.489,2965.128z"/>
					<path style="fill:#BEB8F2;" d="M1859.355,2905.095l4.022,3.076c44.771-58.522,29.321-194.027,24.243-238.555
						c-0.717-6.293-1.336-11.725-1.256-12.714l-5.04-0.481c-0.133,1.394,0.268,5.006,1.266,13.768
						C1887.609,2714.215,1902.885,2848.194,1859.355,2905.095z"/>
				</g>
			</g>
			<g>
				
					<linearGradient id="SVGID_00000017480934527613176240000005747691611391784353_" gradientUnits="userSpaceOnUse" x1="-3541.9241" y1="1775.6262" x2="-2550.033" y2="4381.9048" gradientTransform="matrix(-0.996 -0.0893 -0.0893 0.996 -734.9739 -1438.6716)">
					<stop  offset="0.0036" style="stop-color:#E38DDD"/>
					<stop  offset="1" style="stop-color:#9571F6"/>
				</linearGradient>
				<path style="fill:url(#SVGID_00000017480934527613176240000005747691611391784353_);" d="M2069.707,2581.459
					c46.191,96.529,0.372,189.643-43.339,251.828c-10.277-0.326-16.273,2.107-26.678,4.072
					c-93.92,17.729-137.766,5.28-233.098,8.139c-20.52,0.615-81.298-15.896-105.699-24.237l-45.242-16.276
					c0,0-78.299-233.521,48.877-292.458s80.947-290.156,71.552-415.667c-5.768-77.073,16.282-114.169,18.709-142.829
					c25.687-303.385-63.604-395.738,5.353-489.262c76.123-103.244,206.727-20.25,295.47-128.188
					c100.207-121.884,0.951-309.54,121.554-403.691c20.677-16.142,42.361-32.165,76.181-41.14
					c83.479-22.153,149.553,27.854,210.422-38.785c122.347-133.948,319.185-176.277,434.846-29.391
					c114.15,144.969-28.934,419.699-380.058,631.674c-232.519,179.218-236.672,235.321-219.844,372.952
					c11.784,96.401,107.599,349.965-33.162,444.52C2124.79,2367.28,2016.899,2471.109,2069.707,2581.459z"/>
				<g>
					<defs>
						<path id="SVGID_00000102526819187288164370000018069356792103817909_" d="M1964.789,2908.595l-341.577-94.945
							c0,0-85.862-242.185,41.315-301.122s80.947-290.156,71.553-415.667c-25.49-340.544,368.066-294.955,372.772-733.92
							c1.252-116.751-38.275-341.007,68.313-430.049c121.434-101.443,208.324,5.775,286.603-79.926
							c122.347-133.947,319.186-176.276,434.845-29.39c114.151,144.97-28.933,419.699-380.055,631.675
							c-232.521,179.219-236.672,235.321-219.846,372.951c11.786,96.402,107.598,349.966-33.163,444.521
							c-140.76,94.555-248.649,198.385-195.844,308.735C2150.055,2749.37,1964.789,2908.595,1964.789,2908.595z"/>
					</defs>
					<clipPath id="SVGID_00000147939046901097909000000004627086716190422676_">
						<use xlink:href="#SVGID_00000102526819187288164370000018069356792103817909_"  style="overflow:visible;"/>
					</clipPath>
					<g style="opacity:0.5;clip-path:url(#SVGID_00000147939046901097909000000004627086716190422676_);">
						<path style="fill:#FCFDFE;" d="M1816.162,2850.925l-6.946-1.069c5.541-38.406,11.641-77.061,18.129-114.89
							c48.06-280.086,122.581-545.039,221.502-787.504c83.82-205.446,186.287-397.658,304.555-571.295
							c95.111-139.638,200.912-268.077,314.465-381.748c79.828-79.908,162.63-151.75,246.113-213.523
							c14.546-10.768,30.094-21.002,45.132-30.9c20.034-13.186,40.751-26.821,59.254-41.827l4.691,4.988
							c-18.757,15.212-39.613,28.94-59.782,42.217c-14.963,9.848-30.433,20.031-44.833,30.689
							c-83.221,61.579-165.777,133.205-245.377,212.889c-113.272,113.388-218.819,241.524-313.712,380.84
							c-118.024,173.28-220.286,365.109-303.945,570.159c-98.755,242.055-173.156,506.586-221.139,786.24
							C1827.786,2773.968,1821.695,2812.568,1816.162,2850.925z"/>
						<path style="fill:#FCFDFE;" d="M2225.039,1596.834l-6.32-3.008c130.253-248.899,22.596-721.768,21.491-726.514l6.85-1.194
							C2248.168,870.888,2356.334,1345.943,2225.039,1596.834z"/>
						<path style="fill:#FCFDFE;" d="M1927.18,2324.787l-6.628-2.314c66.954-179.426,433.854-306.134,437.552-307.394l2.585,6.148
							C2357.02,2022.476,1993.086,2148.165,1927.18,2324.787z"/>
						<path style="fill:#FCFDFE;" d="M1898.739,2429.929l-6.927-1.201c20.544-123.13-22.391-303.331-120.899-507.399
							c-4.953-10.262-4.953-10.262-4.768-11.484l6.941,1.121l-3.47-0.561l3.389-0.683c0.247,0.716,2.116,4.59,4.287,9.081
							C1876.359,2124.036,1919.492,2305.555,1898.739,2429.929z"/>
						<path style="fill:#FCFDFE;" d="M1827.342,2780.999l-6.329-2.986c63.539-122.702,277.047-164.079,279.194-164.482l1.592,6.406
							C2099.681,2620.336,1889.427,2661.108,1827.342,2780.999z"/>
						<path style="fill:#FCFDFE;" d="M1805.56,2851.036c-25.36-109.392-85.035-216.548-182.436-327.59l5.374-4.042
							c98.146,111.896,158.303,219.986,183.911,330.444L1805.56,2851.036z"/>
						<path style="fill:#FCFDFE;" d="M2607.4,1066.955l-6.137-3.329c80.822-134.38,131.714-293.996,148.438-346.447
							c4.048-12.697,5.489-17.161,6.283-18.626l6.274,3.091c-0.591,1.127-2.904,8.385-5.833,17.575
							C2739.647,771.837,2688.592,931.961,2607.4,1066.955z"/>
						<path style="fill:#FCFDFE;" d="M2440.697,1266.314l-4.87-4.838c112.955-98.458,427.082-83.422,440.4-82.735l-0.173,6.524
							C2872.823,1185.1,2551.543,1169.696,2440.697,1266.314z"/>
					</g>
				</g>
			</g>
			<g>
				
					<linearGradient id="SVGID_00000035511418964149711800000016025138857839778749_" gradientUnits="userSpaceOnUse" x1="3641.4355" y1="1517.7288" x2="4566.5483" y2="3040.7026" gradientTransform="matrix(-0.9945 0.1048 0.1048 0.9945 6105.4648 -603.5961)">
					<stop  offset="0" style="stop-color:#AB316D"/>
					<stop  offset="1" style="stop-color:#792D3D"/>
				</linearGradient>
				<path style="fill:url(#SVGID_00000035511418964149711800000016025138857839778749_);" d="M2175.636,2876.206
					c-18.312-0.365-74.114,169.38-139.396,55.615c-16.31-28.422-42.249-129.987-176.618-120.47
					c-26.083,1.847-52.168,3.692-78.25,5.539c-28.58-55.989-45.143-114.054,31.319-144.815
					c118.744-47.77,97.075-252.141,54.652-320.747c-52.504-84.913-170.461-284.992,11.877-361.571
					c151.796-63.753,263.601-75.6,251.512-268.118c-12.088-192.52,84.16-323.664,269.412-331.83
					c194.95-8.594,324.261-268.546,492.614-204.092c293.343,112.313,94.026,560.592-227.159,718.463
					c-321.183,157.871-114.678,251.629-86.7,407.255c1.779,14.594,3.411,37.357,0.237,64.59
					c-19.543,167.659-187.444,214.08-295.393,361.157C2136.522,2937.765,2206.487,2876.823,2175.636,2876.206z"/>
				<g>
					<defs>
						<path id="SVGID_00000142136860012769802200000012023819775064647081_" d="M2223.282,2819.594l-422.006,41.693
							c-30.918-53.948-73.996-154.85,11.413-189.21c118.744-47.772,97.075-252.142,54.653-320.748
							c-52.505-84.912-170.461-284.993,11.877-361.572c151.795-63.752,263.599-75.598,251.511-268.117
							c-12.087-192.52,84.161-323.663,269.414-331.829c194.949-8.594,324.26-268.547,492.613-204.091
							c293.344,112.312,94.026,560.589-227.158,718.462c-321.184,157.871-114.679,251.629-86.701,407.256
							c38.197,212.465-273.561,199.343-344.307,291.927C2179.13,2675.943,2201.87,2765.544,2223.282,2819.594z"/>
					</defs>
					<clipPath id="SVGID_00000111878661813702474390000017391900941207443840_">
						<use xlink:href="#SVGID_00000142136860012769802200000012023819775064647081_"  style="overflow:visible;"/>
					</clipPath>
					<g style="opacity:0.5;clip-path:url(#SVGID_00000111878661813702474390000017391900941207443840_);">
						<path style="fill:#FCFDFE;" d="M2017.538,2776.58l-9.161-0.779c59.57-631.815,443.854-1232.842,1002.89-1568.531l4.943,7.323
							C2459.531,1548.868,2076.861,2147.389,2017.538,2776.58z"/>
						<path style="fill:#FCFDFE;" d="M2081.291,2434.776l-9.14,0.944c-29.02-247.841-276.464-417.873-278.961-419.561l5.352-7.05
							C1801.071,2010.816,2051.812,2183.029,2081.291,2434.776z"/>
						<path style="fill:#FCFDFE;" d="M2031.856,2660.638l-8.524-3.267c100.526-234.157,580.624-315.282,585.462-316.073l1.584,8.55
							C2605.593,2350.631,2130.47,2430.933,2031.856,2660.638z"/>
						<path style="fill:#FCFDFE;" d="M2343.053,1864.477l-8.791-2.566c62.643-191.523-96.776-459.885-98.392-462.573l7.992-4.28
							C2245.5,1397.778,2406.854,1669.416,2343.053,1864.477z"/>
						<path style="fill:#FCFDFE;" d="M2600.53,1543.406l-5.65-6.857c191.111-140.047,516.372-107.055,519.64-106.701l-1.025,8.623
							C3110.269,1438.119,2788.66,1405.538,2600.53,1543.406z"/>
					</g>
				</g>
			</g>
		</g>
		<g>
			
				<linearGradient id="SVGID_00000121237811346811577750000000969598914395486131_" gradientUnits="userSpaceOnUse" x1="1175.5549" y1="1912.1791" x2="714.6113" y2="1962.4635">
				<stop  offset="0" style="stop-color:#444B8C"/>
				<stop  offset="0.9964" style="stop-color:#26264F"/>
			</linearGradient>
			<path style="fill:url(#SVGID_00000121237811346811577750000000969598914395486131_);" d="M1725.945,750.85l280.815,2334.078
				c4.21,34.996-19.911,66.368-53.699,69.72l-1169.63,128.408c-71.651,4.457-110.881-32.149-115.303-69.363L373.305,732.179
				c-4.397-37.006,30.756-70.52,102.711-70.52l1180.272,24.859C1690.455,687.089,1721.756,716.037,1725.945,750.85z"/>
			
				<linearGradient id="SVGID_00000011009633218009245690000017903939585223786628_" gradientUnits="userSpaceOnUse" x1="1581.6898" y1="750.2787" x2="441.9097" y2="4630.5693">
				<stop  offset="0" style="stop-color:#444B8C"/>
				<stop  offset="0.9964" style="stop-color:#26264F"/>
			</linearGradient>
			<path style="fill:url(#SVGID_00000011009633218009245690000017903939585223786628_);" d="M1778.586,746.833l282.357,2345.754
				c4.234,35.172-19.969,66.706-53.882,70.083L794.482,3283.395c-38.017,3.784-72.856-23.717-77.302-61.122L420.701,727.933
				c-4.42-37.197,23.502-67.096,61.934-66.448l1226.019,20.686C1742.95,682.75,1774.375,711.846,1778.586,746.833z"/>
			
				<linearGradient id="SVGID_00000097469747444463898910000009621777683660539576_" gradientUnits="userSpaceOnUse" x1="480.1541" y1="2015.7965" x2="2017.7336" y2="2015.7965">
				<stop  offset="0.0036" style="stop-color:#E38DDD"/>
				<stop  offset="1" style="stop-color:#9571F6"/>
			</linearGradient>
			<path style="fill:url(#SVGID_00000097469747444463898910000009621777683660539576_);" d="M1755.578,876.222l261.708,2174.979
				c3.954,32.86-18.712,62.266-50.456,65.352L826.441,3227.407c-35.341,3.435-67.727-22.235-71.867-57.053L480.585,866.164
				c-4.119-34.637,21.804-62.663,57.502-62.282l1152.093,12.269C1722.252,816.491,1751.642,843.522,1755.578,876.222z"/>
			
				<linearGradient id="SVGID_00000019677959262336586380000002065927982479627434_" gradientUnits="userSpaceOnUse" x1="1154.5874" y1="654.704" x2="-184.9639" y2="4282.6548">
				<stop  offset="0" style="stop-color:#FFC444"/>
				<stop  offset="0.9964" style="stop-color:#F36F56"/>
			</linearGradient>
			<path style="fill:url(#SVGID_00000019677959262336586380000002065927982479627434_);" d="M1144.041,745.221
				c1.495,12.487-7.467,22.483-20.03,22.325c-12.577-0.158-23.995-10.431-25.492-22.943c-1.497-12.513,7.498-22.507,20.076-22.323
				C1131.161,722.463,1142.547,732.734,1144.041,745.221z"/>
			<g>
				<path style="fill:#FFFFFF;" d="M1558.415,2336.205c-233.463-431.64-582.22-560.841-687.223-1005.693
					c-56.758-240.46-18.087-470.612,47.044-661.677l-435.6-7.35c-38.432-0.648-66.354,29.251-61.933,66.448L717.18,3222.272
					c4.446,37.406,39.285,64.907,77.303,61.122l953.205-94.902C1754.737,2801.727,1662.483,2528.611,1558.415,2336.205z"/>
			</g>
		</g>
		<g>
			
				<linearGradient id="SVGID_00000140696685735633944220000005748928240508906417_" gradientUnits="userSpaceOnUse" x1="1393.3005" y1="743.1935" x2="592.9078" y2="2752.0215">
				<stop  offset="0" style="stop-color:#311944"/>
				<stop  offset="1" style="stop-color:#6B3976"/>
			</linearGradient>
			<path style="fill:url(#SVGID_00000140696685735633944220000005748928240508906417_);" d="M1812.193,905.044L676.974,919.615
				c-39.768,0.51-68.212,33.308-63.449,73.255l22.465,188.433c4.763,39.947,40.891,71.609,80.614,70.72l1133.933-25.351
				c37.104-0.829,63.401-32.707,58.812-71.203l-21.649-181.586C1883.111,935.388,1849.338,904.567,1812.193,905.044z"/>
			
				<linearGradient id="SVGID_00000106848501112634414340000009583143488817876368_" gradientUnits="userSpaceOnUse" x1="1674.8265" y1="760.3897" x2="874.4363" y2="2769.2114">
				<stop  offset="0" style="stop-color:#311944"/>
				<stop  offset="1" style="stop-color:#6B3976"/>
			</linearGradient>
			<path style="fill:url(#SVGID_00000106848501112634414340000009583143488817876368_);" d="M1960.311,1248.36l-1133.628,27.917
				c-39.712,0.978-68.111,34.155-63.348,74.102l22.465,188.433c4.763,39.947,40.846,71.229,80.513,69.873l1132.342-38.698
				c37.052-1.266,63.307-33.497,58.718-71.993l-21.649-181.586C2031.135,1277.914,1997.405,1247.447,1960.311,1248.36z"/>
			
				<linearGradient id="SVGID_00000058575916642109755390000001107058855401214863_" gradientUnits="userSpaceOnUse" x1="2110.7112" y1="1029.0347" x2="1310.3185" y2="3037.8625">
				<stop  offset="0" style="stop-color:#311944"/>
				<stop  offset="1" style="stop-color:#6B3976"/>
			</linearGradient>
			<path style="fill:url(#SVGID_00000058575916642109755390000001107058855401214863_);" d="M1977.961,2295.457l-1129.663,61.175
				c-39.573,2.143-67.859,36.267-63.096,76.214l69.978,586.949c4.763,39.947,40.69,69.916,80.164,66.943l1126.84-84.852
				c36.871-2.777,62.981-36.229,58.392-74.725l-67.435-565.623C2048.551,2323.043,2014.925,2293.455,1977.961,2295.457z"/>
			
				<linearGradient id="SVGID_00000021097297638416752340000003737953102764925321_" gradientUnits="userSpaceOnUse" x1="1516.795" y1="792.3951" x2="716.4044" y2="2801.218">
				<stop  offset="0" style="stop-color:#311944"/>
				<stop  offset="1" style="stop-color:#6B3976"/>
			</linearGradient>
			<path style="fill:url(#SVGID_00000021097297638416752340000003737953102764925321_);" d="M837.776,2268.372l460.748-23.776
				c38.457-1.985,65.774-35.415,61.094-74.673l-43.698-366.524c-4.68-39.258-39.642-69.938-78.166-68.524l-461.563,16.946
				c-39.655,1.456-68.007,35.022-63.245,74.968l44.465,372.955C762.174,2239.69,798.191,2270.414,837.776,2268.372z"/>
			
				<linearGradient id="SVGID_00000116222883980325127910000007684707303881219005_" gradientUnits="userSpaceOnUse" x1="2092.3672" y1="1021.726" x2="1291.9753" y2="3030.5518">
				<stop  offset="0" style="stop-color:#311944"/>
				<stop  offset="1" style="stop-color:#6B3976"/>
			</linearGradient>
			<path style="fill:url(#SVGID_00000116222883980325127910000007684707303881219005_);" d="M1908.193,1710.26l-443.654,16.288
				c-38.104,1.399-65.274,34.279-60.606,73.436l43.586,365.586c4.668,39.157,39.353,69.306,77.39,67.343l442.871-22.854
				c36.975-1.908,63.169-34.658,58.579-73.154l-42.849-359.404C1978.921,1739.006,1945.233,1708.9,1908.193,1710.26z"/>
			
				<linearGradient id="SVGID_00000145739126307314004300000014650253518478351529_" gradientUnits="userSpaceOnUse" x1="530.5536" y1="3982.031" x2="907.2068" y2="2506.8035">
				<stop  offset="0.0036" style="stop-color:#F36F56"/>
				<stop  offset="1" style="stop-color:#FFC444"/>
			</linearGradient>
			<path style="fill:url(#SVGID_00000145739126307314004300000014650253518478351529_);" d="M1826.079,895.898L690.86,910.469
				c-39.768,0.51-68.212,33.309-63.449,73.256l22.465,188.433c4.763,39.947,40.891,71.609,80.614,70.721l1133.934-25.351
				c37.104-0.83,63.401-32.708,58.812-71.203l-21.649-181.586C1896.998,926.242,1863.224,895.421,1826.079,895.898z"/>
			
				<linearGradient id="SVGID_00000038389808874822102250000001319426000104978832_" gradientUnits="userSpaceOnUse" x1="1688.7129" y1="751.244" x2="888.3226" y2="2760.0659">
				<stop  offset="0" style="stop-color:#FF9085"/>
				<stop  offset="1" style="stop-color:#FB6FBB"/>
			</linearGradient>
			<path style="fill:url(#SVGID_00000038389808874822102250000001319426000104978832_);" d="M1974.197,1239.215L840.57,1267.132
				c-39.712,0.978-68.111,34.156-63.348,74.102l22.466,188.433c4.763,39.947,40.846,71.229,80.513,69.873l1132.342-38.698
				c37.051-1.266,63.307-33.497,58.718-71.993l-21.649-181.586C2045.022,1268.769,2011.291,1238.301,1974.197,1239.215z"/>
			
				<linearGradient id="SVGID_00000127018528691008874300000004602634503501358769_" gradientUnits="userSpaceOnUse" x1="1095.2054" y1="4126.2007" x2="1471.86" y2="2650.968">
				<stop  offset="0.0036" style="stop-color:#F36F56"/>
				<stop  offset="1" style="stop-color:#FFC444"/>
			</linearGradient>
			<path style="fill:url(#SVGID_00000127018528691008874300000004602634503501358769_);" d="M1991.848,2286.312l-1129.662,61.174
				c-39.573,2.143-67.859,36.267-63.096,76.214l69.978,586.949c4.763,39.947,40.69,69.915,80.164,66.943l1126.84-84.852
				c36.872-2.776,62.981-36.229,58.392-74.725l-67.435-565.623C2062.438,2313.897,2028.812,2284.31,1991.848,2286.312z"/>
			
				<linearGradient id="SVGID_00000040574533229224535480000008004729042915545235_" gradientUnits="userSpaceOnUse" x1="540.7067" y1="3984.6255" x2="917.3601" y2="2509.3977">
				<stop  offset="0.0036" style="stop-color:#F36F56"/>
				<stop  offset="1" style="stop-color:#FFC444"/>
			</linearGradient>
			<path style="fill:url(#SVGID_00000040574533229224535480000008004729042915545235_);" d="M851.663,2259.226l460.749-23.776
				c38.457-1.984,65.774-35.415,61.094-74.673l-43.698-366.524c-4.68-39.258-39.641-69.938-78.166-68.524l-461.563,16.946
				c-39.655,1.456-68.007,35.022-63.245,74.968l44.465,372.955C776.061,2230.545,812.078,2261.269,851.663,2259.226z"/>
			<path style="opacity:0.5;fill:#FFFFFF;" d="M851.663,2259.226l460.749-23.776c38.457-1.984,65.774-35.415,61.094-74.673
				l-43.698-366.524c-4.68-39.258-39.641-69.938-78.166-68.524l-461.563,16.946c-39.655,1.456-68.007,35.022-63.245,74.968
				l44.465,372.955C776.061,2230.545,812.078,2261.269,851.663,2259.226z"/>
			
				<linearGradient id="SVGID_00000126317432829202614950000011171313653688031874_" gradientUnits="userSpaceOnUse" x1="1170.8551" y1="4145.5171" x2="1547.5085" y2="2670.2888">
				<stop  offset="0.0036" style="stop-color:#F36F56"/>
				<stop  offset="1" style="stop-color:#FFC444"/>
			</linearGradient>
			<path style="fill:url(#SVGID_00000126317432829202614950000011171313653688031874_);" d="M1922.079,1701.114l-443.654,16.288
				c-38.104,1.399-65.274,34.279-60.606,73.436l43.586,365.586c4.669,39.157,39.353,69.306,77.39,67.344l442.871-22.854
				c36.975-1.908,63.169-34.658,58.579-73.154l-42.849-359.404C1992.807,1729.861,1959.119,1699.754,1922.079,1701.114z"/>
			<g style="opacity:0.5;">
				<path style="fill:#FFFFFF;" d="M840.57,1267.132c-39.712,0.978-68.111,34.155-63.348,74.102l22.466,188.433
					c4.762,39.947,40.846,71.229,80.512,69.873l795.753-27.195c-85.534-118.711-196.586-210.455-264.774-319.266L840.57,1267.132z"
					/>
			</g>
			<g style="opacity:0.5;">
				<path style="fill:#FFFFFF;" d="M1515.985,2312.081l-653.799,35.405c-39.574,2.143-67.859,36.267-63.097,76.214l69.979,586.949
					c4.762,39.947,40.688,69.915,80.163,66.943l506.751-38.159c-36.985-92.718-60.749-193.998-62.059-302.622
					C1391.733,2555.196,1453.16,2428.6,1515.985,2312.081z"/>
			</g>
			<g style="opacity:0.5;">
				<path style="fill:#FFFFFF;" d="M1639.793,1852.719c-8.156-51.144-22.566-97.291-41.267-139.726l-120.102,4.409
					c-38.104,1.399-65.274,34.279-60.606,73.436l43.586,365.586c4.668,39.158,39.353,69.306,77.391,67.344l25.363-1.309
					C1620.674,2113.6,1663.804,2003.289,1639.793,1852.719z"/>
			</g>
			<g style="opacity:0.5;">
				<path style="fill:#FFFFFF;" d="M1200.363,1036.634c3.699-47.923,15.877-92.381,33.191-133.131l-542.694,6.966
					c-39.768,0.51-68.211,33.308-63.45,73.256l22.466,188.433c4.763,39.947,40.892,71.609,80.614,70.72l509.5-11.391
					C1210.823,1174.112,1194.616,1111.085,1200.363,1036.634z"/>
			</g>
		</g>
		<g>
			<g>
				
					<linearGradient id="SVGID_00000121260316442259525420000010460894532823755153_" gradientUnits="userSpaceOnUse" x1="-2030.2538" y1="3021.8979" x2="-1954.4926" y2="3021.8979" gradientTransform="matrix(0.9987 -0.0516 0.0516 0.9987 4207.5908 20.3958)">
					<stop  offset="0" style="stop-color:#AA80F9"/>
					<stop  offset="0.9964" style="stop-color:#6165D7"/>
				</linearGradient>
				<path style="fill:url(#SVGID_00000121260316442259525420000010460894532823755153_);" d="M2395.125,3109.638
					c5.154,7.578,11.417,18.886,14.959,33.639c1.552,6.466,2.304,12.435,2.607,17.665c-3.223,6.902-19.535,31.439-45.348,40.992
					c-15.968,5.91-44.948-3.781-17.696-27.565c27.25-23.784,31.046-29.066,14.382-76.009c-4.286-12.077-4.117-16.775-2.303-17.964
					C2365.964,3077.618,2382.034,3094.616,2395.125,3109.638z"/>
				
					<linearGradient id="SVGID_00000103260223714132778480000000007903049200139689_" gradientUnits="userSpaceOnUse" x1="-1885.5973" y1="3043.9285" x2="-1809.8347" y2="3043.9285" gradientTransform="matrix(0.9987 -0.0516 0.0516 0.9987 4207.5908 20.3958)">
					<stop  offset="0" style="stop-color:#AA80F9"/>
					<stop  offset="0.9964" style="stop-color:#6165D7"/>
				</linearGradient>
				<path style="fill:url(#SVGID_00000103260223714132778480000000007903049200139689_);" d="M2540.731,3124.175
					c5.154,7.578,11.418,18.887,14.96,33.64c1.551,6.465,2.303,12.434,2.607,17.665c-3.225,6.901-19.536,31.438-45.349,40.992
					c-15.968,5.91-44.948-3.782-17.697-27.566c27.251-23.784,31.047-29.064,14.384-76.009c-4.288-12.077-4.119-16.775-2.304-17.964
					C2511.57,3092.155,2527.639,3109.153,2540.731,3124.175z"/>
				
					<linearGradient id="SVGID_00000051383276530211614600000017605421638937553551_" gradientUnits="userSpaceOnUse" x1="-2154.1462" y1="2477.1169" x2="-1693.5582" y2="2477.1169" gradientTransform="matrix(0.9987 -0.0516 0.0516 0.9987 4207.5908 20.3958)">
					<stop  offset="0" style="stop-color:#444B8C"/>
					<stop  offset="0.9964" style="stop-color:#26264F"/>
				</linearGradient>
				<path style="fill:url(#SVGID_00000051383276530211614600000017605421638937553551_);" d="M2592.646,2113.65
					c12.247,61.376,24.493,122.754,36.74,184.131c-20.202,59.149-38.671,123.477-53.813,192.785
					c-54.695,250.358-45.818,473.452-21.521,643.083c-12.943,7.176-25.885,14.349-38.829,21.527
					c-39.535-89.016-89.278-221.791-117.17-388.816c-32.954-197.33-20.453-352.904-29.584-353.136
					c-8.752-0.222-28.361,142.483-22.866,304.496c5.809,171.264,37.879,311.252,66.114,407.034
					c-16.305,3.624-32.61,7.248-48.916,10.873c-66.341-122.01-136.3-289.438-166.714-494.865
					c-21.121-142.659-46.773-332.26,42.193-531.817c8.885-19.927,40.75-64.578,46.636-75.544
					C2395.353,2050.638,2482.209,2096.408,2592.646,2113.65z"/>
				
					<linearGradient id="SVGID_00000108300074592718889350000009780642565850156948_" gradientUnits="userSpaceOnUse" x1="-2099.3767" y1="2797.1992" x2="-1654.4668" y2="2797.1992" gradientTransform="matrix(0.9976 0.069 -0.069 0.9976 4452.0269 -76.9363)">
					<stop  offset="0" style="stop-color:#444B8C"/>
					<stop  offset="0.9964" style="stop-color:#26264F"/>
				</linearGradient>
				<path style="opacity:0.25;fill:url(#SVGID_00000108300074592718889350000009780642565850156948_);" d="M2575.573,2490.567
					c15.142-69.31,33.611-133.635,53.813-192.786c-12.247-61.377-24.493-122.755-36.74-184.131
					c-110.436-17.242-197.292-63.01-307.729-80.253c-5.886,10.965-37.752,55.616-46.636,75.543
					c-29.99,67.272-46.919,133.401-55.425,196.991c212.191-9.576,275.131,32.525,293.437,72.691
					c29.14,63.94-50.491,132.512-17.033,262.788c10.062,39.181,23.739,58.188,26.957,107.589
					c4.224,64.828-16.741,71.845-17.801,137.975c-1.16,72.355,22.853,131.727,42.557,180.45
					c12.25,30.291,24.79,54.505,34.117,71.191c2.987-1.656,5.974-3.311,8.962-4.969
					C2529.754,2964.018,2520.878,2740.924,2575.573,2490.567z"/>
			</g>
			
				<linearGradient id="SVGID_00000087407663579197559670000015752497260536088217_" gradientUnits="userSpaceOnUse" x1="-1213.045" y1="1793.1011" x2="-2077.8704" y2="1337.3522" gradientTransform="matrix(1 0 0 1 4313.4004 0)">
				<stop  offset="0" style="stop-color:#311944"/>
				<stop  offset="1" style="stop-color:#6B3976"/>
			</linearGradient>
			<path style="fill:url(#SVGID_00000087407663579197559670000015752497260536088217_);" d="M2404.956,1260.114
				c7.712,8.351-1.093,21.539,1.48,65.961c1.176,20.319,4.153,37.149,6.763,49.054c1.513,10.857,3.176,20.898,4.951,29.736
				c1.303,6.484,2.501,11.533,4.006,16.883c2.789,9.923,6.325,19.684,10.507,29.013c0.277,0.617,0.032,1.334-0.547,1.659
				c-0.034,0.02-0.07,0.037-0.106,0.053c-0.653,0.294-1.418,0.001-1.711-0.652c-4.234-9.444-7.813-19.325-10.639-29.369
				c-1.524-5.417-2.736-10.525-4.052-17.077c-0.935-4.658-1.837-9.669-2.706-14.926c-0.002,14.086,1.296,29.512,8.381,49.555
				c21.503,60.833-22.669,106.919-60.667,112.526c-43.82,6.465-77.272-25.325-87.682-35.782
				c-41.958-42.153-56.888-116.388-27.591-174.848C2283.723,1265.317,2386.057,1239.649,2404.956,1260.114z"/>
			
				<linearGradient id="SVGID_00000148637930295724508810000003987404369269270944_" gradientUnits="userSpaceOnUse" x1="-1222.9165" y1="1811.8312" x2="-2087.7385" y2="1356.0839" gradientTransform="matrix(1 0 0 1 4313.4004 0)">
				<stop  offset="0" style="stop-color:#311944"/>
				<stop  offset="1" style="stop-color:#6B3976"/>
			</linearGradient>
			<path style="fill:url(#SVGID_00000148637930295724508810000003987404369269270944_);" d="M2299.874,1331.714
				c1.161-7.169,6.732-36.487,30.912-57.011c45.878-38.94,127.844-20.002,177.356,15.126
				c51.807,36.757,35.045,67.636,86.522,109.076c55.911,45.011,89.217,19.372,164.719,60.624
				c29.698,16.225,109.735,59.954,123.046,139.727c11.504,68.933-30.364,143.496-87.626,176.522
				c-98.03,56.541-235.24-12.075-303.781-81.147c-65.738-66.248-28.27-88.015-125.551-219.038
				C2330.299,1428.22,2291.201,1385.286,2299.874,1331.714z"/>
			<g>
				
					<linearGradient id="SVGID_00000176043641370001714380000014555965988611360142_" gradientUnits="userSpaceOnUse" x1="-3064.2322" y1="1849.1255" x2="-2926.9229" y2="1849.1255" gradientTransform="matrix(0.9994 0.0335 -0.0335 0.9994 4904.5781 152.1848)">
					<stop  offset="0" style="stop-color:#FFC444"/>
					<stop  offset="0.9964" style="stop-color:#F36F56"/>
				</linearGradient>
				<path style="fill:url(#SVGID_00000176043641370001714380000014555965988611360142_);" d="M1810.092,1919.595
					c8.592,1.257,20.591-5.625,29.773-12.042c6.456-4.511,22.69-8.204,22.69-8.204l-13.545-20.629l-12.564,1.432
					c0,0-22.194-1.672-35.235,0.208c-13.042,1.88-20.667,8.113-21.118,21.54L1810.092,1919.595z"/>
				
					<linearGradient id="SVGID_00000131340823064750958400000000070553219292596921_" gradientUnits="userSpaceOnUse" x1="-2660.0168" y1="1348.2572" x2="-2330.9912" y2="1528.1563" gradientTransform="matrix(0.9978 -0.0657 0.0657 0.9978 4396.5298 91.664)">
					<stop  offset="0" style="stop-color:#AA80F9"/>
					<stop  offset="0.9964" style="stop-color:#6165D7"/>
				</linearGradient>
				<path style="fill:url(#SVGID_00000131340823064750958400000000070553219292596921_);" d="M2225.107,1565.116
					c-66.116,86.649-40.178,132.981-85.456,204.533c-44.881,70.927-77.651-17.178-196.129,31.628
					c-44.989,18.533-79.531,39.649-101.978,54.849c0.535,4.881,1.293,10.114,2.348,15.639c0.718,3.748,1.876,9.214,4.148,17.381
					c2.185,7.856,5.852,19.835,11.766,35.088c35.221,19.392,97.774,46.061,169.431,31.595c13.047-2.634,22.146-5.009,35.591-10.511
					c45.162-18.487,116.088-29.455,185.229-123.641c52.214-71.128,59.981-76.394,69.793-110.282
					c24.255-83.771-3.635-184.235-39.621-190.226C2261.459,1518.043,2243.422,1541.116,2225.107,1565.116z"/>
			</g>
			
				<linearGradient id="SVGID_00000177469473295429780520000015457604217761950343_" gradientUnits="userSpaceOnUse" x1="-1838.462" y1="2219.8521" x2="-1086.032" y2="2696.6389" gradientTransform="matrix(0.9893 0.146 -0.146 0.9893 4423.6987 -128.4262)">
				<stop  offset="0" style="stop-color:#AA80F9"/>
				<stop  offset="0.9964" style="stop-color:#6165D7"/>
			</linearGradient>
			<path style="fill:url(#SVGID_00000177469473295429780520000015457604217761950343_);" d="M2246.77,1541.75
				c-33.607,41.899-38.982,88.644-39.824,109.375c-2.62,64.486,27.703,113.722,34.975,126.728
				c34.352,61.448,37.289,189.276-95.819,478.987c16.667,11.199,79.37,100.376,99.684,52.391
				c27.696-65.421,137.317-516.899,41.544,14.589c-1.262,7.002,13.805,4.059,20.986,5.924
				c51.488,13.372,112.418,20.679,179.971,12.828c105.878-12.306,182.937-56.606,223.25-84.13
				c-35.954-64.515-75.739-152.75-100.201-262.307c-46.665-209.002-12.859-384.959,13.491-480.683
				c-35.065-19.227-145.486-73.994-265.907-40.12C2328.914,1483.771,2282.17,1497.618,2246.77,1541.75z"/>
			
				<linearGradient id="SVGID_00000079451923467288123020000012484265600359090353_" gradientUnits="userSpaceOnUse" x1="-1984.35" y1="1753.4481" x2="-1271.1682" y2="2205.3645" gradientTransform="matrix(1 0 0 1 4313.4004 0)">
				<stop  offset="0" style="stop-color:#AA80F9"/>
				<stop  offset="0.9964" style="stop-color:#6165D7"/>
			</linearGradient>
			<path style="opacity:0.3;fill:url(#SVGID_00000079451923467288123020000012484265600359090353_);" d="M2611.336,1996.132
				c-46.666-209.001-12.86-384.959,13.49-480.682c-35.065-19.228-145.485-73.995-265.907-40.12
				c-30.005,8.441-76.749,22.289-112.148,66.42c-26.759,33.36-35.599,69.748-38.523,93.677c0.899-0.249,2.14-0.583,3.623-0.947
				c74.433-18.254,167.942,33.459,203.712,87.84c59.694,90.75-46.647,180.972-28.034,332.667
				c10.06,82.003,55.838,175.456,176.25,272.634c67.394-18.964,117.749-48.705,147.736-69.178
				C2675.582,2193.925,2635.797,2105.69,2611.336,1996.132z"/>
			
				<linearGradient id="SVGID_00000173848477714365321520000017236265537449244832_" gradientUnits="userSpaceOnUse" x1="5055.5254" y1="1329.0208" x2="5069.3203" y2="961.5673" gradientTransform="matrix(-0.9962 0.0867 0.0867 0.9962 7315.5962 -81.7878)">
				<stop  offset="0" style="stop-color:#FFC444"/>
				<stop  offset="0.9964" style="stop-color:#F36F56"/>
			</linearGradient>
			<path style="fill:url(#SVGID_00000173848477714365321520000017236265537449244832_);" d="M2379.702,1396.27
				c-8.495,22.95-14.749,51.204-1.004,68.297c8.373,10.414,20.961,15.395,33.365,20.031c29.311,10.96,41.665,3.995,48.038,11.826
				c14.027,17.237-12.954,91.357-68.255,103.281c-55.034,11.866-111.698-43.565-105.973-70.051
				c5.165-23.899,60.717-22.331,67.486-52.558c3.409-15.218-7.313-30.614-16.382-40.852l-6.497,1.253L2379.702,1396.27z"/>
			
				<linearGradient id="SVGID_00000053507106888482594510000017889190011601938581_" gradientUnits="userSpaceOnUse" x1="-1922.1023" y1="1629.3502" x2="-1910.8049" y2="1328.4258" gradientTransform="matrix(1 0 0 1 4313.4004 0)">
				<stop  offset="0" style="stop-color:#FFC444"/>
				<stop  offset="0.9964" style="stop-color:#F36F56"/>
			</linearGradient>
			<path style="opacity:0.4;fill:url(#SVGID_00000053507106888482594510000017889190011601938581_);" d="M2460.1,1496.426
				c-6.374-7.831-18.727-0.868-48.038-11.827c-12.403-4.637-24.991-9.619-33.365-20.033c-13.743-17.092-7.491-45.346,1.004-68.296
				l-49.223,41.226l6.497-1.252c7.198,8.126,15.319,19.511,16.708,31.468c4.123,2.262,7.676,4.845,10.271,7.441
				c-5.67,16.504-6.737,30.356-6.775,39.247c-0.061,13.864-0.105,24.161,6.775,33.173c7.503,9.83,18.851,12.374,28.771,14.596
				c22.042,4.938,41.701,0.501,54.453-3.986C2462.917,1533.718,2467.977,1506.104,2460.1,1496.426z"/>
			
				<linearGradient id="SVGID_00000083060070586289632100000010623246874827419051_" gradientUnits="userSpaceOnUse" x1="4836.3027" y1="1369.7328" x2="4832.5825" y2="1669.4734" gradientTransform="matrix(-1 -0.0041 -0.0043 1.043 7182.1763 -42.6284)">
				<stop  offset="0" style="stop-color:#FFC444"/>
				<stop  offset="0.9964" style="stop-color:#F36F56"/>
			</linearGradient>
			<path style="fill:url(#SVGID_00000083060070586289632100000010623246874827419051_);" d="M2365.623,1419.74
				c0,0-2.797,28.108-30.631,28.255c-34.296,0.18-38.101-90.314-29.761-95.485c9.67-5.997,18.13,8.69,40.639,3.568
				c9.478-2.156,17.671-14.346,22.474-1.209c5.466,14.946,0.849,41.402,0.849,41.402s8.148-6.719,9.399,1.366
				C2380.229,1408.217,2372.29,1414.828,2365.623,1419.74z"/>
			
				<linearGradient id="SVGID_00000146459999630153522450000010899545578703327675_" gradientUnits="userSpaceOnUse" x1="-1194.015" y1="1756.9871" x2="-2058.8354" y2="1301.2407" gradientTransform="matrix(1 0 0 1 4313.4004 0)">
				<stop  offset="0" style="stop-color:#311944"/>
				<stop  offset="1" style="stop-color:#6B3976"/>
			</linearGradient>
			<path style="fill:url(#SVGID_00000146459999630153522450000010899545578703327675_);" d="M2311.373,1321.409
				c-10.884,11.099-16.887,32.633-9.343,43.457c10.837,15.55,42.888-0.685,55.997,18.336c5.746,8.34,5.413,19.916,8.394,19.727
				c2.467-0.156,3.926-8.176,5.347-14.775c7.836-36.379,16.904-40.462,14.141-50.877
				C2380.292,1316.107,2333.72,1298.62,2311.373,1321.409z"/>
			<g>
				<path style="fill:#EA645E;" d="M2938.006,1961.382l-608.308,244.933c-15.822,6.37-33.812-1.292-40.183-17.113l-137.634-345.633
					c-6.371-15.821,1.292-33.812,17.113-40.183l608.308-244.933c15.821-6.371,33.812,1.291,40.183,17.113l137.634,345.632
					C2961.49,1937.021,2953.829,1955.011,2938.006,1961.382z"/>
				
					<linearGradient id="SVGID_00000043439333397016162200000001938489357621861521_" gradientUnits="userSpaceOnUse" x1="-1843.5247" y1="1885.9825" x2="-1035.7996" y2="1885.9825" gradientTransform="matrix(1 0 0 1 4004.5576 0)">
					<stop  offset="0" style="stop-color:#FF9085"/>
					<stop  offset="1" style="stop-color:#FB6FBB"/>
				</linearGradient>
				<path style="fill:url(#SVGID_00000043439333397016162200000001938489357621861521_);" d="M2949.402,1964.98l-608.308,244.933
					c-15.822,6.371-33.812-1.291-40.183-17.113l-137.634-345.632c-6.371-15.823,1.292-33.813,17.114-40.184l608.308-244.933
					c15.822-6.37,33.812,1.292,40.183,17.113l137.634,345.633C2972.885,1940.619,2965.224,1958.609,2949.402,1964.98z"/>
				<g>
					<path style="fill:#FFFFFF;" d="M2429.064,1884.163c32.999,0.582,62.888,28.179,66.731,61.518
						c1.079,9.359-0.07,18.162-2.914,26.03l73.403,33.943c6.281-17.812,8.661-37.755,6.231-58.857
						c-8.769-76.16-76.946-139.456-152.502-141.092c-0.197-0.005-0.388,0.006-0.583,0.002l9.052,78.476
						C2428.678,1884.184,2428.866,1884.16,2429.064,1884.163z"/>
					<path style="fill:#FFC244;" d="M2492.881,1971.71c-7.29,20.17-26.102,34.011-49.826,33.739
						c-33.081-0.378-63.227-27.971-67.098-61.511c-3.85-33.343,19.721-60.012,52.524-59.756l-9.052-78.476
						c-75.842-1.319-130.664,60.052-121.76,137.094c8.924,77.222,78.443,140.496,154.431,141.06
						c54.564,0.405,97.777-31.677,114.184-78.207L2492.881,1971.71z"/>
				</g>
				<g>
					<path style="fill:#4C53A5;" d="M2864.1,1770.411l-253.692,103.874c-1.201,0.492-2.573-0.095-3.063-1.311l-9.773-24.175
						c-0.491-1.216,0.084-2.598,1.286-3.088l253.856-103.502c1.169-0.477,2.51,0.11,2.995,1.309l9.63,23.855
						C2865.824,1768.571,2865.269,1769.931,2864.1,1770.411z"/>
				</g>
				<g>
					<path style="fill:#4C53A5;" d="M2842.703,1719.054l-253.693,103.875c-1.201,0.491-2.573-0.096-3.064-1.312l-9.772-24.174
						c-0.492-1.216,0.083-2.599,1.285-3.089l253.856-103.501c1.169-0.477,2.51,0.109,2.995,1.309l9.631,23.854
						C2844.426,1717.216,2843.871,1718.576,2842.703,1719.054z"/>
				</g>
				<g>
					<path style="fill:#4C53A5;" d="M2905.828,1876.333l-253.693,103.874c-1.2,0.492-2.572-0.096-3.063-1.311l-9.772-24.175
						c-0.492-1.216,0.083-2.599,1.285-3.089l253.856-103.501c1.17-0.477,2.51,0.109,2.995,1.309l9.631,23.854
						C2907.551,1874.493,2906.996,1875.853,2905.828,1876.333z"/>
				</g>
				<g>
					<path style="fill:#4C53A5;" d="M2884.429,1824.976l-253.693,103.874c-1.2,0.492-2.572-0.095-3.064-1.311l-9.772-24.175
						c-0.492-1.215,0.083-2.598,1.285-3.088l253.856-103.503c1.17-0.476,2.511,0.11,2.995,1.31l9.631,23.854
						C2886.152,1823.138,2885.598,1824.498,2884.429,1824.976z"/>
				</g>
			</g>
			<g>
				
					<linearGradient id="SVGID_00000128469199643576319250000004404097819879508618_" gradientUnits="userSpaceOnUse" x1="-2236.4534" y1="-323.0875" x2="-2085.9131" y2="-323.0875" gradientTransform="matrix(0.7945 -0.6073 0.6073 0.7945 4535.0376 1036.3066)">
					<stop  offset="0" style="stop-color:#FFC444"/>
					<stop  offset="0.9964" style="stop-color:#F36F56"/>
				</linearGradient>
				<path style="fill:url(#SVGID_00000128469199643576319250000004404097819879508618_);" d="M2607.224,2074.068l-9.662,9.943
					c0,0-19.988,13.998-29.745,24.653c-9.758,10.654-11.896,21.239-2.952,32.943c8.945,11.703,24.325,2.227,37.74-5.83
					c8.161-4.902,13.56-19.075,16.891-30.896c2.342-8.311,13.548-22.722,13.548-22.722L2607.224,2074.068z"/>
				
					<linearGradient id="SVGID_00000121974098391760459160000012560165257372188846_" gradientUnits="userSpaceOnUse" x1="-1541.7146" y1="802.6109" x2="-1301.4109" y2="1077.4336" gradientTransform="matrix(0.9748 -0.2305 0.2895 1.0913 3792.5825 476.6269)">
					<stop  offset="0" style="stop-color:#AA80F9"/>
					<stop  offset="0.9964" style="stop-color:#6165D7"/>
				</linearGradient>
				<path style="fill:url(#SVGID_00000121974098391760459160000012560165257372188846_);" d="M2481.553,1546.699
					c24.639-52.505,207.186-9.717,341.105,84.759c42.502,29.982,46.936,125.082,32.039,198.293
					c-17.391,85.473-66.861,142.861-91.622,171.585c-43.646,50.631-88.733,79.782-117.379,95.489
					c-9.247-2.437-19.97-6.054-31.45-11.531c-10.509-5.015-19.437-10.533-26.803-15.757c-3.298-33.506-4.356-84.084,11.365-141.949
					c9.969-36.697,20.624-54.012,41.706-102.123c19.183-43.78,35.67-62.194,46.91-71.847c5.275-4.53,14.965-12.074,16.851-24.234
					c2.509-16.165-10.313-30.544-14.711-35.475c-43.492-48.772-146.988-24.301-192.019-80.903
					C2484.334,1596.401,2472.118,1566.802,2481.553,1546.699z"/>
			</g>
			
				<linearGradient id="SVGID_00000155125360926923752030000006811425483461473411_" gradientUnits="userSpaceOnUse" x1="-1297.7483" y1="1731.1107" x2="-2057.1885" y2="1330.8981" gradientTransform="matrix(1 0 0 1 4313.4004 0)">
				<stop  offset="0" style="stop-color:#311944"/>
				<stop  offset="1" style="stop-color:#6B3976"/>
			</linearGradient>
			<path style="fill:url(#SVGID_00000155125360926923752030000006811425483461473411_);" d="M2368.344,1354.868
				c-7.588,8.294,9.057,35.757,42.66,90.344c20.681,33.598,31.023,50.397,37.67,57.66c35.79,39.108,96.172,69.23,157.24,65.835
				c41.907-2.33,48.044-18.437,82.393-12.705c51.82,8.645,36.735-92.085,63.477-37.294c1.597,3.274-10.6,28.777-77.798-18.103
				c-54.983-38.358-69.934-26.789-156.347-79.913c-6.269-3.854-32.807-20.278-70.061-38.759
				C2403.782,1360.206,2375.894,1346.617,2368.344,1354.868z"/>
		</g>
	</g>
</g>
</svg>
